<svg xmlns="http://www.w3.org/2000/svg" viewBox="0 0 153.84 68.11"><defs><style>.cls-1{fill:#3772ff;}.cls-2{fill:#fff;}</style></defs><g id="Layer_2" data-name="Layer 2"><g id="Layer_1-2" data-name="Layer 1"><path class="cls-1" d="M138.05,0H15.79A15.81,15.81,0,0,0,0,15.8V52.32A15.8,15.8,0,0,0,15.79,68.11H138.05a15.8,15.8,0,0,0,15.79-15.79V15.8A15.81,15.81,0,0,0,138.05,0Zm10.79,52.32a10.8,10.8,0,0,1-10.79,10.79H15.79A10.8,10.8,0,0,1,5,52.32V15.8A10.81,10.81,0,0,1,15.79,5H138.05a10.81,10.81,0,0,1,10.79,10.8Z"/><path class="cls-2" d="M138.05,5H15.79A10.81,10.81,0,0,0,5,15.8V52.32A10.8,10.8,0,0,0,15.79,63.11H138.05a10.8,10.8,0,0,0,10.79-10.79V15.8A10.81,10.81,0,0,0,138.05,5ZM55.13,44a2.07,2.07,0,0,1-1.55.48H50.41a1.3,1.3,0,0,1-.79-.21.73.73,0,0,1-.28-.59V33.09A3.53,3.53,0,0,0,49,31.23a1.26,1.26,0,0,0-1.13-.61,1.6,1.6,0,0,0-1.45.82,4.6,4.6,0,0,0-.51,2.38v6.53h.28a1.64,1.64,0,0,1,1.3.51,2.82,2.82,0,0,1,0,3.09,2.11,2.11,0,0,1-1.56.48H42.69a1.36,1.36,0,0,1-.8-.21.7.7,0,0,1-.3-.59V33.09a3.76,3.76,0,0,0-.37-1.86,1.23,1.23,0,0,0-1.12-.61,1.66,1.66,0,0,0-1.47.83,4.47,4.47,0,0,0-.53,2.37v6.53h.28a1.68,1.68,0,0,1,1.32.5,2.27,2.27,0,0,1,.43,1.51A2.21,2.21,0,0,1,39.67,44a2.12,2.12,0,0,1-1.57.48H33.87A2.1,2.1,0,0,1,32.32,44a2.91,2.91,0,0,1,0-3.09,1.65,1.65,0,0,1,1.32-.51h.26V31.29h-.26a1.63,1.63,0,0,1-1.33-.54,2.22,2.22,0,0,1-.46-1.51,2.17,2.17,0,0,1,.47-1.56,2.18,2.18,0,0,1,1.58-.48h2.52a1.36,1.36,0,0,1,1,.31,1.87,1.87,0,0,1,.27,1.18,4.65,4.65,0,0,1,1.66-1.44,4.7,4.7,0,0,1,2.16-.49,4.05,4.05,0,0,1,1.89.42,4,4,0,0,1,1.4,1.29,5.4,5.4,0,0,1,1.8-1.28,5.6,5.6,0,0,1,2.2-.43,4.28,4.28,0,0,1,3.66,1.5c.74,1,1.12,2.67,1.12,5v7.07h.26a1.63,1.63,0,0,1,1.31.51,2.26,2.26,0,0,1,.44,1.5A2.21,2.21,0,0,1,55.13,44Zm20.81,0a2.76,2.76,0,0,1-1.82.48H72.37A2.29,2.29,0,0,1,71,44.08a2.68,2.68,0,0,1-.76-1.29,12.85,12.85,0,0,1-3.28,1.57,11.67,11.67,0,0,1-3.5.54,6.93,6.93,0,0,1-4.72-1.5A5.12,5.12,0,0,1,57,39.32,5,5,0,0,1,59.23,35a10.75,10.75,0,0,1,6.22-1.55c.6,0,1.23,0,1.9.09s1.43.17,2.26.3v-.35a3.66,3.66,0,0,0-.81-2.56A3.12,3.12,0,0,0,66.4,30a7.72,7.72,0,0,0-3.14.91,7.53,7.53,0,0,1-2.8.91A2,2,0,0,1,59,31.35,1.77,1.77,0,0,1,58.5,30c0-1,.73-1.81,2.21-2.4a16.55,16.55,0,0,1,6-.88c2.65,0,4.54.51,5.69,1.53s1.71,2.74,1.71,5.18v6.92h.3a1.85,1.85,0,0,1,2.07,2A1.92,1.92,0,0,1,75.94,44Zm23.18,0a2.74,2.74,0,0,1-1.82.48H92.73A3,3,0,0,1,91,44a1.54,1.54,0,0,1-.54-1.31,1.7,1.7,0,0,1,.31-1.07,2.48,2.48,0,0,1,1-.68l-3-3.71-2.3,2.11V43.2a1.46,1.46,0,0,1-.24,1,1.17,1.17,0,0,1-.87.26H82A2.59,2.59,0,0,1,80.23,44a2.06,2.06,0,0,1-.53-1.59,2,2,0,0,1,.5-1.5,2,2,0,0,1,1.49-.51H82V24.16h-.3a2,2,0,0,1-1.51-.54,2.1,2.1,0,0,1-.52-1.53,2,2,0,0,1,.54-1.57A2.62,2.62,0,0,1,82,20h3.36a1.13,1.13,0,0,1,.87.26,1.44,1.44,0,0,1,.24,1V34.31l3.94-3.55a1.41,1.41,0,0,1-.79-.5,1.73,1.73,0,0,1-.22-1,2.13,2.13,0,0,1,.5-1.6,2.67,2.67,0,0,1,1.79-.47H95.8a2.72,2.72,0,0,1,1.8.47,2,2,0,0,1,.53,1.57,1.91,1.91,0,0,1-.3,1.19,2.24,2.24,0,0,1-1.26.56,5,5,0,0,0-1.56.56,7.6,7.6,0,0,0-1.57,1.3l-1.33,1.38L97,40.35h.46a2.33,2.33,0,0,1,1.62.5,2,2,0,0,1,.54,1.51A2.06,2.06,0,0,1,99.12,44Zm10-3.94a6.07,6.07,0,0,0,3.71,1,10.11,10.11,0,0,0,4.56-1.13,10.94,10.94,0,0,1,2.72-1.13,1.42,1.42,0,0,1,1.13.51,2,2,0,0,1,.44,1.32c0,1.17-.86,2.17-2.59,3a14.61,14.61,0,0,1-6.41,1.27,10.57,10.57,0,0,1-7.34-2.54,8.37,8.37,0,0,1-2.83-6.52,8.37,8.37,0,0,1,2.83-6.51,10.57,10.57,0,0,1,7.34-2.54,9.63,9.63,0,0,1,6.67,2.38A7.52,7.52,0,0,1,122,35a1.84,1.84,0,0,1-.53,1.51,4,4,0,0,1-2.19.41h-12A5.11,5.11,0,0,0,109.14,40Z"/><path class="cls-1" d="M55.15,40.86a1.63,1.63,0,0,0-1.31-.51h-.26V33.28c0-2.35-.38-4-1.12-5a4.28,4.28,0,0,0-3.66-1.5,5.6,5.6,0,0,0-2.2.43,5.4,5.4,0,0,0-1.8,1.28,4,4,0,0,0-1.4-1.29,4.05,4.05,0,0,0-1.89-.42,4.7,4.7,0,0,0-2.16.49,4.65,4.65,0,0,0-1.66,1.44,1.87,1.87,0,0,0-.27-1.18,1.36,1.36,0,0,0-1-.31H33.87a2.18,2.18,0,0,0-1.58.48,2.17,2.17,0,0,0-.47,1.56,2.22,2.22,0,0,0,.46,1.51,1.63,1.63,0,0,0,1.33.54h.26v9.06h-.26a1.65,1.65,0,0,0-1.32.51,2.91,2.91,0,0,0,0,3.09,2.1,2.1,0,0,0,1.55.48H38.1A2.12,2.12,0,0,0,39.67,44a2.21,2.21,0,0,0,.46-1.59,2.27,2.27,0,0,0-.43-1.51,1.68,1.68,0,0,0-1.32-.5H38.1V33.82a4.47,4.47,0,0,1,.53-2.37,1.66,1.66,0,0,1,1.47-.83,1.23,1.23,0,0,1,1.12.61,3.76,3.76,0,0,1,.37,1.86V43.63a.7.7,0,0,0,.3.59,1.36,1.36,0,0,0,.8.21h3.17A2.11,2.11,0,0,0,47.42,44a2.82,2.82,0,0,0,0-3.09,1.64,1.64,0,0,0-1.3-.51h-.28V33.82a4.6,4.6,0,0,1,.51-2.38,1.6,1.6,0,0,1,1.45-.82,1.26,1.26,0,0,1,1.13.61,3.53,3.53,0,0,1,.39,1.86V43.63a.73.73,0,0,0,.28.59,1.3,1.3,0,0,0,.79.21h3.17A2.07,2.07,0,0,0,55.13,44a2.21,2.21,0,0,0,.46-1.59A2.26,2.26,0,0,0,55.15,40.86Z"/><path class="cls-1" d="M76,40.88a2.07,2.07,0,0,0-1.54-.53h-.3V33.43c0-2.44-.57-4.16-1.71-5.18s-3-1.53-5.69-1.53a16.55,16.55,0,0,0-6,.88C59.23,28.19,58.5,29,58.5,30A1.77,1.77,0,0,0,59,31.35a2,2,0,0,0,1.42.51,7.53,7.53,0,0,0,2.8-.91A7.72,7.72,0,0,1,66.4,30a3.12,3.12,0,0,1,2.4.87,3.66,3.66,0,0,1,.81,2.56v.35c-.83-.13-1.58-.23-2.26-.3s-1.3-.09-1.9-.09A10.75,10.75,0,0,0,59.23,35,5,5,0,0,0,57,39.32a5.12,5.12,0,0,0,1.71,4.08,6.93,6.93,0,0,0,4.72,1.5,11.67,11.67,0,0,0,3.5-.54,12.85,12.85,0,0,0,3.28-1.57A2.68,2.68,0,0,0,71,44.08a2.29,2.29,0,0,0,1.39.35h1.75A2.76,2.76,0,0,0,75.94,44a1.92,1.92,0,0,0,.55-1.55A2.07,2.07,0,0,0,76,40.88Zm-6.35-1.26a8.41,8.41,0,0,1-2.24,1.16,8,8,0,0,1-2.42.37,3.51,3.51,0,0,1-2.15-.57,2,2,0,0,1-.74-1.65A2.12,2.12,0,0,1,63.22,37a6.34,6.34,0,0,1,3.22-.69,10.83,10.83,0,0,1,1.45.1c.53.07,1.1.17,1.72.31Z"/><path class="cls-2" d="M69.61,36.75v2.87a8.41,8.41,0,0,1-2.24,1.16,8,8,0,0,1-2.42.37,3.51,3.51,0,0,1-2.15-.57,2,2,0,0,1-.74-1.65A2.12,2.12,0,0,1,63.22,37a6.34,6.34,0,0,1,3.22-.69,10.83,10.83,0,0,1,1.45.1C68.42,36.51,69,36.61,69.61,36.75Z"/><path class="cls-1" d="M99.12,40.85a2.33,2.33,0,0,0-1.62-.5H97l-4.93-6.12,1.33-1.38A7.6,7.6,0,0,1,95,31.55,5,5,0,0,1,96.57,31a2.24,2.24,0,0,0,1.26-.56,1.91,1.91,0,0,0,.3-1.19,2,2,0,0,0-.53-1.57,2.72,2.72,0,0,0-1.8-.47H91.68a2.67,2.67,0,0,0-1.79.47,2.13,2.13,0,0,0-.5,1.6,1.73,1.73,0,0,0,.22,1,1.41,1.41,0,0,0,.79.5l-3.94,3.55v-13a1.44,1.44,0,0,0-.24-1,1.13,1.13,0,0,0-.87-.26H82a2.62,2.62,0,0,0-1.79.49,2,2,0,0,0-.54,1.57,2.1,2.1,0,0,0,.52,1.53,2,2,0,0,0,1.51.54H82V40.35h-.3a2,2,0,0,0-1.49.51,2,2,0,0,0-.5,1.5A2.06,2.06,0,0,0,80.23,44a2.59,2.59,0,0,0,1.76.48h3.36a1.17,1.17,0,0,0,.87-.26,1.46,1.46,0,0,0,.24-1V39.36l2.3-2.11,3,3.71a2.48,2.48,0,0,0-1,.68,1.7,1.7,0,0,0-.31,1.07A1.54,1.54,0,0,0,91,44a3,3,0,0,0,1.75.41H97.3A2.74,2.74,0,0,0,99.12,44a2.06,2.06,0,0,0,.54-1.59A2,2,0,0,0,99.12,40.85Z"/><path class="cls-1" d="M120.13,38.78a10.94,10.94,0,0,0-2.72,1.13A10.11,10.11,0,0,1,112.85,41a6.07,6.07,0,0,1-3.71-1,5.11,5.11,0,0,1-1.87-3.09h12a4,4,0,0,0,2.19-.41A1.84,1.84,0,0,0,122,35a7.52,7.52,0,0,0-2.65-5.83,9.63,9.63,0,0,0-6.67-2.38,10.57,10.57,0,0,0-7.34,2.54,8.37,8.37,0,0,0-2.83,6.51,8.37,8.37,0,0,0,2.83,6.52,10.57,10.57,0,0,0,7.34,2.54,14.61,14.61,0,0,0,6.41-1.27c1.73-.85,2.59-1.85,2.59-3a2,2,0,0,0-.44-1.32A1.42,1.42,0,0,0,120.13,38.78ZM109,31.28a5.4,5.4,0,0,1,3.28-.91,5.74,5.74,0,0,1,3.42.95A4.11,4.11,0,0,1,117.32,34h-10A4.73,4.73,0,0,1,109,31.28Z"/><path class="cls-2" d="M117.32,34h-10A4.73,4.73,0,0,1,109,31.28a5.4,5.4,0,0,1,3.28-.91,5.74,5.74,0,0,1,3.42.95A4.11,4.11,0,0,1,117.32,34Z"/></g></g></svg>